<svg xmlns="http://www.w3.org/2000/svg" xmlns:xlink="http://www.w3.org/1999/xlink" width="500" zoomAndPan="magnify" viewBox="0 0 375 374.999991" height="500" preserveAspectRatio="xMidYMid meet" version="1.0"><defs><clipPath id="afd9a8c9d4"><path d="M 16.75 16.75 L 358.25 16.75 L 358.25 358.25 L 16.75 358.25 Z M 16.75 16.75 " clip-rule="nonzero"/></clipPath><clipPath id="5a93523d61"><path d="M 85 137 L 294 137 L 294 316 L 85 316 Z M 85 137 " clip-rule="nonzero"/></clipPath><clipPath id="9dde53b8ab"><path d="M 147.882812 0.00390625 L 369.140625 125.597656 L 227.535156 375.066406 L 6.277344 249.476562 Z M 147.882812 0.00390625 " clip-rule="nonzero"/></clipPath><clipPath id="2833685386"><path d="M 147.882812 0.00390625 L 369.140625 125.597656 L 227.535156 375.066406 L 6.277344 249.476562 Z M 147.882812 0.00390625 " clip-rule="nonzero"/></clipPath><clipPath id="b6995f0ea2"><path d="M 147.882812 0.00390625 L 369.140625 125.59375 L 227.535156 375.066406 L 6.277344 249.476562 Z M 147.882812 0.00390625 " clip-rule="nonzero"/></clipPath><clipPath id="5199d48eb1"><path d="M 84 108 L 127 108 L 127 189 L 84 189 Z M 84 108 " clip-rule="nonzero"/></clipPath><clipPath id="9a97a19542"><path d="M 147.882812 0.00390625 L 369.140625 125.597656 L 227.535156 375.066406 L 6.277344 249.476562 Z M 147.882812 0.00390625 " clip-rule="nonzero"/></clipPath><clipPath id="4953ab041d"><path d="M 147.882812 0.00390625 L 369.140625 125.597656 L 227.535156 375.066406 L 6.277344 249.476562 Z M 147.882812 0.00390625 " clip-rule="nonzero"/></clipPath><clipPath id="1171be210f"><path d="M 147.882812 0.00390625 L 369.140625 125.59375 L 227.535156 375.066406 L 6.277344 249.476562 Z M 147.882812 0.00390625 " clip-rule="nonzero"/></clipPath><clipPath id="ba35e8f1c9"><path d="M 149 55 L 275 55 L 275 198 L 149 198 Z M 149 55 " clip-rule="nonzero"/></clipPath><clipPath id="e601738b35"><path d="M 147.882812 0.00390625 L 369.140625 125.597656 L 227.535156 375.066406 L 6.277344 249.476562 Z M 147.882812 0.00390625 " clip-rule="nonzero"/></clipPath><clipPath id="305025c02b"><path d="M 147.882812 0.00390625 L 369.140625 125.597656 L 227.535156 375.066406 L 6.277344 249.476562 Z M 147.882812 0.00390625 " clip-rule="nonzero"/></clipPath><clipPath id="f4165830d4"><path d="M 147.882812 0.00390625 L 369.140625 125.59375 L 227.535156 375.066406 L 6.277344 249.476562 Z M 147.882812 0.00390625 " clip-rule="nonzero"/></clipPath></defs><g clip-path="url(#afd9a8c9d4)"><path fill="#00eaab" d="M 187.5 16.75 C 93.351562 16.75 16.75 93.351562 16.75 187.5 L 16.75 347.578125 C 16.75 351.890625 19.355469 355.796875 23.34375 357.4375 C 24.667969 357.992188 26.054688 358.25 27.421875 358.25 C 30.195312 358.25 32.929688 357.160156 34.976562 355.132812 L 74.613281 315.5 C 105.839844 343.140625 145.539062 358.25 187.5 358.25 C 281.648438 358.25 358.25 281.648438 358.25 187.5 C 358.25 93.351562 281.648438 16.75 187.5 16.75 Z M 187.5 16.75 " fill-opacity="1" fill-rule="nonzero"/></g><g clip-path="url(#5a93523d61)"><g clip-path="url(#9dde53b8ab)"><g clip-path="url(#2833685386)"><g clip-path="url(#b6995f0ea2)"><path fill="#000000" d="M 97.414062 220.753906 C 125.222656 171.609375 139.125 147.042969 139.125 147.042969 C 146.207031 136.414062 153.566406 134.277344 161.195312 140.632812 C 164.921875 146.253906 164.152344 153.667969 158.882812 162.855469 C 145.464844 190.949219 138.753906 204.996094 138.753906 204.996094 C 137.207031 211.8125 141.679688 214.441406 152.175781 212.878906 C 225.308594 189.113281 261.875 177.222656 261.875 177.222656 C 276.226562 176.742188 279.359375 187.007812 270.683594 194.667969 C 223.132812 213.484375 199.359375 222.894531 199.359375 222.894531 C 195.855469 226.789062 197.28125 229.21875 203.621094 230.183594 C 256.464844 219.234375 282.882812 213.765625 282.882812 213.765625 C 296.273438 215.0625 297.6875 226.132812 285.410156 232.242188 C 236.394531 245.355469 211.886719 251.917969 211.886719 251.917969 C 206.84375 255.859375 207.46875 259.375 213.769531 262.453125 C 257.75 258.203125 279.742188 256.074219 279.742188 256.074219 C 284.222656 258.011719 286.667969 260.394531 287.078125 263.21875 C 287.71875 268.285156 285.925781 271.601562 281.703125 273.152344 C 236.816406 279.957031 214.371094 283.355469 214.371094 283.355469 C 208.660156 286.679688 208.617188 289.945312 214.234375 293.152344 C 245.925781 294.003906 261.769531 294.429688 261.769531 294.429688 C 266.765625 295.769531 268.929688 298.164062 268.25 301.628906 C 267.179688 305.46875 263.933594 307.6875 258.515625 308.273438 C 188.941406 315.089844 146.863281 316.863281 132.285156 313.589844 C 105.511719 303.929688 90.082031 286.058594 85.988281 259.984375 C 87.140625 247.265625 90.949219 234.1875 97.414062 220.753906 Z M 97.414062 220.753906 " fill-opacity="1" fill-rule="evenodd"/></g></g></g></g><g clip-path="url(#5199d48eb1)"><g clip-path="url(#9a97a19542)"><g clip-path="url(#4953ab041d)"><g clip-path="url(#1171be210f)"><path fill="#000000" d="M 84.484375 124.140625 C 91.265625 148.4375 98.175781 169.851562 105.214844 188.390625 C 105.214844 188.390625 112.144531 176.183594 126.003906 151.765625 C 109.535156 124.742188 101.300781 111.234375 101.300781 111.234375 C 91.429688 104.925781 85.824219 109.230469 84.484375 124.140625 Z M 84.484375 124.140625 " fill-opacity="1" fill-rule="evenodd"/></g></g></g></g><g clip-path="url(#ba35e8f1c9)"><g clip-path="url(#e601738b35)"><g clip-path="url(#305025c02b)"><g clip-path="url(#f4165830d4)"><path fill="#000000" d="M 164.300781 131.707031 C 154.144531 125.398438 149.496094 128.171875 149.496094 128.171875 C 149.496094 128.171875 163.082031 104.28125 188.84375 59.210938 C 199.90625 48.648438 212.847656 60.085938 208.039062 71.726562 C 189.320312 115.207031 179.960938 136.945312 179.960938 136.945312 C 183.027344 142.574219 186.324219 143.628906 189.851562 140.105469 C 217.46875 90.144531 231.277344 65.167969 231.277344 65.167969 C 242.164062 55.015625 255.15625 66.570312 251.0625 80.457031 C 222.691406 131.082031 208.507812 156.394531 208.507812 156.394531 C 210.511719 159.277344 213.484375 160.246094 217.429688 159.292969 C 245.273438 122.976562 259.195312 104.820312 259.195312 104.820312 C 270.839844 97.65625 276.53125 108.253906 273.945312 117.523438 C 247.535156 156.09375 234.328125 175.378906 234.328125 175.378906 C 188.492188 189.582031 165.578125 196.679688 165.578125 196.679688 C 158.199219 199.386719 156.671875 193.945312 157.515625 191.296875 C 169.234375 167.46875 174.160156 153.265625 174.160156 153.265625 C 175.902344 144.40625 172.484375 135.703125 164.300781 131.707031 Z M 164.300781 131.707031 " fill-opacity="1" fill-rule="evenodd"/></g></g></g></g></svg>