<svg xmlns="http://www.w3.org/2000/svg" xmlns:xlink="http://www.w3.org/1999/xlink" width="1200" zoomAndPan="magnify" viewBox="0 0 900 299.999988" height="400" preserveAspectRatio="xMidYMid meet" version="1.0"><defs><g/><clipPath id="fd34a3e274"><path d="M 33.859375 85.523438 L 158.886719 85.523438 L 158.886719 210.546875 L 33.859375 210.546875 Z M 33.859375 85.523438 " clip-rule="nonzero"/></clipPath><clipPath id="ff2db30124"><path d="M 59 129 L 136 129 L 136 195 L 59 195 Z M 59 129 " clip-rule="nonzero"/></clipPath><clipPath id="da47c62e16"><path d="M 81.871094 79.390625 L 162.871094 125.371094 L 111.03125 216.703125 L 30.027344 170.726562 Z M 81.871094 79.390625 " clip-rule="nonzero"/></clipPath><clipPath id="a1ed8012e0"><path d="M 81.871094 79.390625 L 162.871094 125.371094 L 111.03125 216.703125 L 30.027344 170.726562 Z M 81.871094 79.390625 " clip-rule="nonzero"/></clipPath><clipPath id="ea718d5c30"><path d="M 81.871094 79.390625 L 162.871094 125.371094 L 111.03125 216.703125 L 30.027344 170.726562 Z M 81.871094 79.390625 " clip-rule="nonzero"/></clipPath><clipPath id="cf3954f7e8"><path d="M 58 119 L 74 119 L 74 149 L 58 149 Z M 58 119 " clip-rule="nonzero"/></clipPath><clipPath id="4d50a46dc2"><path d="M 81.871094 79.390625 L 162.871094 125.371094 L 111.03125 216.703125 L 30.027344 170.726562 Z M 81.871094 79.390625 " clip-rule="nonzero"/></clipPath><clipPath id="57f25f0e9a"><path d="M 81.871094 79.390625 L 162.871094 125.371094 L 111.03125 216.703125 L 30.027344 170.726562 Z M 81.871094 79.390625 " clip-rule="nonzero"/></clipPath><clipPath id="1206af257a"><path d="M 81.871094 79.390625 L 162.871094 125.371094 L 111.03125 216.703125 L 30.027344 170.726562 Z M 81.871094 79.390625 " clip-rule="nonzero"/></clipPath><clipPath id="c54cb61a05"><path d="M 82 99 L 129 99 L 129 152 L 82 152 Z M 82 99 " clip-rule="nonzero"/></clipPath><clipPath id="b4552b3fd1"><path d="M 81.871094 79.390625 L 162.871094 125.371094 L 111.03125 216.703125 L 30.027344 170.726562 Z M 81.871094 79.390625 " clip-rule="nonzero"/></clipPath><clipPath id="5aa94a02c0"><path d="M 81.871094 79.390625 L 162.871094 125.371094 L 111.03125 216.703125 L 30.027344 170.726562 Z M 81.871094 79.390625 " clip-rule="nonzero"/></clipPath><clipPath id="0969a547a9"><path d="M 81.871094 79.390625 L 162.871094 125.371094 L 111.03125 216.703125 L 30.027344 170.726562 Z M 81.871094 79.390625 " clip-rule="nonzero"/></clipPath></defs><g fill="#000000" fill-opacity="1"><g transform="translate(172.453594, 204.930169)"><g><path d="M 85.390625 -111.265625 C 87.441406 -111.265625 89.175781 -110.554688 90.59375 -109.140625 C 92.007812 -107.722656 92.71875 -105.984375 92.71875 -103.921875 L 92.71875 -5.015625 C 92.71875 -2.960938 92.007812 -1.195312 90.59375 0.28125 C 89.175781 1.769531 87.441406 2.515625 85.390625 2.515625 C 83.328125 2.515625 81.550781 1.769531 80.0625 0.28125 C 78.582031 -1.195312 77.84375 -2.960938 77.84375 -5.015625 L 77.84375 -46.9375 L 23.5625 -46.9375 L 23.5625 -5.015625 C 23.5625 -2.960938 22.820312 -1.195312 21.34375 0.28125 C 19.863281 1.769531 18.09375 2.515625 16.03125 2.515625 C 13.96875 2.515625 12.226562 1.769531 10.8125 0.28125 C 9.394531 -1.195312 8.6875 -2.960938 8.6875 -5.015625 L 8.6875 -103.921875 C 8.6875 -105.984375 9.394531 -107.722656 10.8125 -109.140625 C 12.226562 -110.554688 13.96875 -111.265625 16.03125 -111.265625 C 18.09375 -111.265625 19.863281 -110.554688 21.34375 -109.140625 C 22.820312 -107.722656 23.5625 -105.984375 23.5625 -103.921875 L 23.5625 -61.8125 L 77.84375 -61.8125 L 77.84375 -103.921875 C 77.84375 -105.984375 78.582031 -107.722656 80.0625 -109.140625 C 81.550781 -110.554688 83.328125 -111.265625 85.390625 -111.265625 Z M 85.390625 -111.265625 "/></g></g></g><g fill="#000000" fill-opacity="1"><g transform="translate(273.661917, 204.930169)"><g><path d="M 79.390625 -70.703125 C 84.023438 -65.679688 87.117188 -59.882812 88.671875 -53.3125 C 89.316406 -51.125 89.734375 -48.898438 89.921875 -46.640625 C 90.117188 -44.390625 90.21875 -42.039062 90.21875 -39.59375 C 90.21875 -37.15625 90.117188 -34.773438 89.921875 -32.453125 C 89.734375 -30.128906 89.316406 -27.875 88.671875 -25.6875 C 87.898438 -22.46875 86.707031 -19.410156 85.09375 -16.515625 C 83.476562 -13.617188 81.578125 -10.945312 79.390625 -8.5 L 79.203125 -8.3125 C 74.304688 -3.800781 68.578125 -0.773438 62.015625 0.765625 C 57.628906 1.929688 53.054688 2.515625 48.296875 2.515625 C 43.523438 2.515625 38.890625 1.929688 34.390625 0.765625 C 27.816406 -0.773438 22.082031 -3.800781 17.1875 -8.3125 L 17 -8.5 C 12.488281 -13.394531 9.460938 -19.191406 7.921875 -25.890625 C 6.765625 -30.390625 6.1875 -34.957031 6.1875 -39.59375 C 6.1875 -44.363281 6.765625 -48.9375 7.921875 -53.3125 C 9.460938 -60.007812 12.488281 -65.804688 17 -70.703125 L 17.1875 -70.703125 C 19.632812 -72.890625 22.304688 -74.785156 25.203125 -76.390625 C 28.109375 -78.003906 31.171875 -79.195312 34.390625 -79.96875 C 36.578125 -80.613281 38.796875 -81.03125 41.046875 -81.21875 C 43.304688 -81.414062 45.65625 -81.515625 48.09375 -81.515625 C 50.539062 -81.515625 52.921875 -81.414062 55.234375 -81.21875 C 57.554688 -81.03125 59.816406 -80.613281 62.015625 -79.96875 C 65.359375 -79.195312 68.445312 -78.003906 71.28125 -76.390625 C 74.113281 -74.785156 76.753906 -72.890625 79.203125 -70.703125 Z M 74.1875 -29.359375 C 74.957031 -32.710938 75.34375 -36.125 75.34375 -39.59375 C 75.34375 -43.070312 74.957031 -46.421875 74.1875 -49.640625 C 73.40625 -53.640625 71.597656 -57.179688 68.765625 -60.265625 C 65.929688 -62.972656 62.457031 -64.710938 58.34375 -65.484375 C 56.664062 -65.867188 55.019531 -66.191406 53.40625 -66.453125 C 51.800781 -66.710938 50.097656 -66.84375 48.296875 -66.84375 C 46.617188 -66.84375 44.910156 -66.710938 43.171875 -66.453125 C 41.429688 -66.191406 39.726562 -65.867188 38.0625 -65.484375 C 34.0625 -64.710938 30.582031 -62.972656 27.625 -60.265625 C 24.789062 -57.304688 22.988281 -53.832031 22.21875 -49.84375 C 21.445312 -46.625 21.0625 -43.207031 21.0625 -39.59375 C 21.0625 -36.125 21.445312 -32.710938 22.21875 -29.359375 C 22.988281 -25.492188 24.789062 -22.019531 27.625 -18.9375 C 30.582031 -16.101562 34.0625 -14.296875 38.0625 -13.515625 C 41.40625 -12.742188 44.75 -12.359375 48.09375 -12.359375 C 51.707031 -12.359375 55.125 -12.742188 58.34375 -13.515625 C 62.207031 -14.296875 65.679688 -16.101562 68.765625 -18.9375 C 71.597656 -21.894531 73.40625 -25.367188 74.1875 -29.359375 Z M 74.1875 -29.359375 "/></g></g></g><g fill="#000000" fill-opacity="1"><g transform="translate(371.200472, 204.930169)"><g><path d="M 85.390625 -81.515625 C 87.441406 -81.515625 89.175781 -80.804688 90.59375 -79.390625 C 92.007812 -77.972656 92.71875 -76.238281 92.71875 -74.1875 L 92.71875 -73.796875 C 92.71875 -69.410156 92.457031 -65.125 91.9375 -60.9375 C 91.425781 -56.757812 90.660156 -52.609375 89.640625 -48.484375 C 86.546875 -35.609375 81.070312 -25.175781 73.21875 -17.1875 L 73.015625 -17.1875 C 69.023438 -13.320312 64.453125 -9.972656 59.296875 -7.140625 C 54.148438 -4.304688 48.359375 -2.117188 41.921875 -0.578125 C 37.929688 0.316406 33.773438 1.054688 29.453125 1.640625 C 25.140625 2.222656 20.796875 2.515625 16.421875 2.515625 L 16.03125 2.515625 C 13.96875 2.515625 12.226562 1.769531 10.8125 0.28125 C 9.394531 -1.195312 8.6875 -2.960938 8.6875 -5.015625 L 8.6875 -74.1875 C 8.6875 -76.238281 9.394531 -77.972656 10.8125 -79.390625 C 12.226562 -80.804688 13.96875 -81.515625 16.03125 -81.515625 C 18.09375 -81.515625 19.863281 -80.804688 21.34375 -79.390625 C 22.820312 -77.972656 23.5625 -76.238281 23.5625 -74.1875 L 23.5625 -12.5625 C 26.144531 -12.8125 28.625 -13.160156 31 -13.609375 C 33.382812 -14.066406 35.800781 -14.550781 38.25 -15.0625 C 48.425781 -17.507812 56.539062 -21.695312 62.59375 -27.625 C 68.382812 -33.675781 72.566406 -41.789062 75.140625 -51.96875 C 76.941406 -59.175781 77.84375 -66.453125 77.84375 -73.796875 L 77.84375 -74.1875 C 77.84375 -76.238281 78.582031 -77.972656 80.0625 -79.390625 C 81.550781 -80.804688 83.328125 -81.515625 85.390625 -81.515625 Z M 85.390625 -81.515625 "/></g></g></g><g fill="#000000" fill-opacity="1"><g transform="translate(471.249921, 204.930169)"><g><path d="M 79.390625 -70.703125 C 84.023438 -65.679688 87.117188 -59.882812 88.671875 -53.3125 C 89.316406 -51.125 89.734375 -48.898438 89.921875 -46.640625 C 90.117188 -44.390625 90.21875 -42.109375 90.21875 -39.796875 L 90.21875 -39.59375 C 90.21875 -37.539062 89.507812 -35.769531 88.09375 -34.28125 C 86.675781 -32.800781 84.9375 -32.0625 82.875 -32.0625 L 21.640625 -32.0625 C 21.765625 -31.550781 21.859375 -31.101562 21.921875 -30.71875 C 21.984375 -30.332031 22.082031 -29.878906 22.21875 -29.359375 C 22.988281 -25.492188 24.789062 -22.019531 27.625 -18.9375 C 30.582031 -16.101562 34.0625 -14.296875 38.0625 -13.515625 C 41.40625 -12.742188 44.75 -12.359375 48.09375 -12.359375 L 73.015625 -12.359375 C 75.078125 -12.359375 76.816406 -11.648438 78.234375 -10.234375 C 79.648438 -8.816406 80.359375 -7.078125 80.359375 -5.015625 C 80.359375 -2.960938 79.648438 -1.195312 78.234375 0.28125 C 76.816406 1.769531 75.078125 2.515625 73.015625 2.515625 L 48.09375 2.515625 C 43.457031 2.515625 38.890625 1.929688 34.390625 0.765625 C 27.816406 -0.773438 22.082031 -3.800781 17.1875 -8.3125 L 17 -8.5 C 12.488281 -13.394531 9.460938 -19.191406 7.921875 -25.890625 C 6.765625 -30.390625 6.1875 -34.957031 6.1875 -39.59375 C 6.1875 -44.363281 6.765625 -48.9375 7.921875 -53.3125 C 9.460938 -60.007812 12.488281 -65.804688 17 -70.703125 L 17.1875 -70.703125 C 19.632812 -72.890625 22.304688 -74.785156 25.203125 -76.390625 C 28.109375 -78.003906 31.171875 -79.195312 34.390625 -79.96875 C 36.578125 -80.613281 38.796875 -81.03125 41.046875 -81.21875 C 43.304688 -81.414062 45.65625 -81.515625 48.09375 -81.515625 C 50.539062 -81.515625 52.921875 -81.414062 55.234375 -81.21875 C 57.554688 -81.03125 59.816406 -80.613281 62.015625 -79.96875 C 65.359375 -79.195312 68.445312 -78.003906 71.28125 -76.390625 C 74.113281 -74.785156 76.753906 -72.890625 79.203125 -70.703125 Z M 21.640625 -46.9375 L 74.765625 -46.9375 C 74.628906 -47.457031 74.53125 -47.910156 74.46875 -48.296875 C 74.40625 -48.679688 74.3125 -49.128906 74.1875 -49.640625 C 73.40625 -53.640625 71.597656 -57.179688 68.765625 -60.265625 C 65.929688 -62.972656 62.457031 -64.710938 58.34375 -65.484375 C 56.664062 -65.867188 55.019531 -66.191406 53.40625 -66.453125 C 51.800781 -66.710938 50.097656 -66.84375 48.296875 -66.84375 C 46.617188 -66.84375 44.910156 -66.710938 43.171875 -66.453125 C 41.429688 -66.191406 39.726562 -65.867188 38.0625 -65.484375 C 34.0625 -64.710938 30.582031 -62.972656 27.625 -60.265625 C 24.789062 -57.304688 22.988281 -53.832031 22.21875 -49.84375 Z M 21.640625 -46.9375 "/></g></g></g><g fill="#000000" fill-opacity="1"><g transform="translate(568.788476, 204.930169)"><g><path d="M 49.453125 -81.515625 C 51.515625 -81.515625 53.253906 -80.804688 54.671875 -79.390625 C 56.085938 -77.972656 56.796875 -76.238281 56.796875 -74.1875 C 56.796875 -72.125 56.085938 -70.382812 54.671875 -68.96875 C 53.253906 -67.550781 51.515625 -66.84375 49.453125 -66.84375 L 49.265625 -66.84375 C 47.585938 -66.84375 45.910156 -66.710938 44.234375 -66.453125 C 42.554688 -66.191406 40.882812 -65.867188 39.21875 -65.484375 C 35.21875 -64.710938 31.738281 -62.972656 28.78125 -60.265625 C 26.082031 -57.429688 24.34375 -53.957031 23.5625 -49.84375 C 23.175781 -48.164062 22.851562 -46.519531 22.59375 -44.90625 C 22.34375 -43.300781 22.21875 -41.597656 22.21875 -39.796875 L 22.21875 -5.015625 C 22.21875 -2.960938 21.507812 -1.195312 20.09375 0.28125 C 18.675781 1.769531 16.9375 2.515625 14.875 2.515625 C 12.8125 2.515625 11.039062 1.769531 9.5625 0.28125 C 8.082031 -1.195312 7.34375 -2.960938 7.34375 -5.015625 L 7.34375 -39.796875 C 7.34375 -44.429688 7.921875 -48.9375 9.078125 -53.3125 C 10.617188 -59.882812 13.710938 -65.679688 18.359375 -70.703125 C 23.378906 -75.335938 29.171875 -78.425781 35.734375 -79.96875 C 37.921875 -80.613281 40.140625 -81.03125 42.390625 -81.21875 C 44.648438 -81.414062 46.941406 -81.515625 49.265625 -81.515625 Z M 49.453125 -81.515625 "/></g></g></g><g fill="#000000" fill-opacity="1"><g transform="translate(629.243065, 204.930169)"><g><path d="M 85.390625 -81.515625 C 87.441406 -81.515625 89.175781 -80.804688 90.59375 -79.390625 C 92.007812 -77.972656 92.71875 -76.238281 92.71875 -74.1875 L 92.71875 -73.796875 C 92.71875 -69.410156 92.457031 -65.125 91.9375 -60.9375 C 91.425781 -56.757812 90.660156 -52.609375 89.640625 -48.484375 C 86.546875 -35.609375 81.070312 -25.175781 73.21875 -17.1875 L 73.015625 -17.1875 C 69.023438 -13.320312 64.453125 -9.972656 59.296875 -7.140625 C 54.148438 -4.304688 48.359375 -2.117188 41.921875 -0.578125 C 37.929688 0.316406 33.773438 1.054688 29.453125 1.640625 C 25.140625 2.222656 20.796875 2.515625 16.421875 2.515625 L 16.03125 2.515625 C 13.96875 2.515625 12.226562 1.769531 10.8125 0.28125 C 9.394531 -1.195312 8.6875 -2.960938 8.6875 -5.015625 L 8.6875 -74.1875 C 8.6875 -76.238281 9.394531 -77.972656 10.8125 -79.390625 C 12.226562 -80.804688 13.96875 -81.515625 16.03125 -81.515625 C 18.09375 -81.515625 19.863281 -80.804688 21.34375 -79.390625 C 22.820312 -77.972656 23.5625 -76.238281 23.5625 -74.1875 L 23.5625 -12.5625 C 26.144531 -12.8125 28.625 -13.160156 31 -13.609375 C 33.382812 -14.066406 35.800781 -14.550781 38.25 -15.0625 C 48.425781 -17.507812 56.539062 -21.695312 62.59375 -27.625 C 68.382812 -33.675781 72.566406 -41.789062 75.140625 -51.96875 C 76.941406 -59.175781 77.84375 -66.453125 77.84375 -73.796875 L 77.84375 -74.1875 C 77.84375 -76.238281 78.582031 -77.972656 80.0625 -79.390625 C 81.550781 -80.804688 83.328125 -81.515625 85.390625 -81.515625 Z M 85.390625 -81.515625 "/></g></g></g><g fill="#000000" fill-opacity="1"><g transform="translate(729.292513, 204.930169)"><g><path d="M 16.03125 2.515625 C 13.96875 2.515625 12.226562 1.769531 10.8125 0.28125 C 9.394531 -1.195312 8.6875 -2.960938 8.6875 -5.015625 L 8.6875 -74.1875 C 8.6875 -76.238281 9.394531 -77.972656 10.8125 -79.390625 C 12.226562 -80.804688 13.96875 -81.515625 16.03125 -81.515625 C 18.09375 -81.515625 19.863281 -80.804688 21.34375 -79.390625 C 22.820312 -77.972656 23.5625 -76.238281 23.5625 -74.1875 L 23.5625 -5.015625 C 23.5625 -2.960938 22.820312 -1.195312 21.34375 0.28125 C 19.863281 1.769531 18.09375 2.515625 16.03125 2.515625 Z M 9.265625 -101.03125 C 9.015625 -101.539062 8.890625 -101.992188 8.890625 -102.390625 C 8.753906 -102.640625 8.6875 -103.148438 8.6875 -103.921875 C 8.6875 -105.984375 9.394531 -107.722656 10.8125 -109.140625 C 11.332031 -109.660156 11.722656 -109.984375 11.984375 -110.109375 C 12.367188 -110.367188 12.785156 -110.5625 13.234375 -110.6875 C 13.679688 -110.820312 14.164062 -110.953125 14.6875 -111.078125 C 14.9375 -111.078125 15.15625 -111.109375 15.34375 -111.171875 C 15.539062 -111.234375 15.769531 -111.265625 16.03125 -111.265625 C 18.09375 -111.265625 19.863281 -110.554688 21.34375 -109.140625 C 22.820312 -107.722656 23.5625 -105.984375 23.5625 -103.921875 C 23.5625 -103.148438 23.5 -102.640625 23.375 -102.390625 C 23.375 -101.992188 23.242188 -101.539062 22.984375 -101.03125 C 22.859375 -100.90625 22.726562 -100.710938 22.59375 -100.453125 C 22.46875 -100.191406 22.34375 -99.929688 22.21875 -99.671875 C 22.082031 -99.421875 21.757812 -99.035156 21.25 -98.515625 C 19.832031 -97.097656 18.09375 -96.390625 16.03125 -96.390625 C 15.382812 -96.390625 14.9375 -96.457031 14.6875 -96.59375 C 13.65625 -96.84375 12.753906 -97.226562 11.984375 -97.75 C 11.585938 -98.007812 11.195312 -98.296875 10.8125 -98.609375 C 10.425781 -98.929688 10.109375 -99.285156 9.859375 -99.671875 C 9.722656 -99.929688 9.625 -100.191406 9.5625 -100.453125 C 9.5 -100.710938 9.398438 -100.90625 9.265625 -101.03125 Z M 9.265625 -101.03125 "/></g></g></g><g fill="#000000" fill-opacity="1"><g transform="translate(761.354692, 204.930169)"><g><path d="M 17 -8.5 C 12.488281 -13.394531 9.460938 -19.191406 7.921875 -25.890625 C 6.765625 -30.390625 6.1875 -34.957031 6.1875 -39.59375 C 6.1875 -44.363281 6.765625 -48.9375 7.921875 -53.3125 C 9.460938 -60.007812 12.488281 -65.804688 17 -70.703125 L 17.1875 -70.703125 C 19.632812 -72.890625 22.304688 -74.785156 25.203125 -76.390625 C 28.109375 -78.003906 31.171875 -79.195312 34.390625 -79.96875 C 36.578125 -80.613281 38.796875 -81.03125 41.046875 -81.21875 C 43.304688 -81.414062 45.65625 -81.515625 48.09375 -81.515625 C 50.539062 -81.515625 52.921875 -81.414062 55.234375 -81.21875 C 57.554688 -81.03125 59.816406 -80.613281 62.015625 -79.96875 C 64.460938 -79.457031 66.78125 -78.6875 68.96875 -77.65625 C 71.15625 -76.625 73.28125 -75.398438 75.34375 -73.984375 L 75.34375 -103.921875 C 75.34375 -105.984375 76.082031 -107.722656 77.5625 -109.140625 C 79.039062 -110.554688 80.8125 -111.265625 82.875 -111.265625 C 84.9375 -111.265625 86.675781 -110.554688 88.09375 -109.140625 C 89.507812 -107.722656 90.21875 -105.984375 90.21875 -103.921875 L 90.21875 -39.40625 C 90.21875 -37.09375 90.117188 -34.773438 89.921875 -32.453125 C 89.734375 -30.128906 89.316406 -27.875 88.671875 -25.6875 C 87.898438 -22.46875 86.707031 -19.410156 85.09375 -16.515625 C 83.476562 -13.617188 81.578125 -10.945312 79.390625 -8.5 L 79.203125 -8.3125 C 74.304688 -3.800781 68.578125 -0.773438 62.015625 0.765625 C 57.628906 1.929688 53.054688 2.515625 48.296875 2.515625 C 43.523438 2.515625 38.890625 1.929688 34.390625 0.765625 C 27.816406 -0.773438 22.082031 -3.800781 17.1875 -8.3125 Z M 22.21875 -49.84375 C 21.445312 -46.625 21.0625 -43.207031 21.0625 -39.59375 C 21.0625 -36.125 21.445312 -32.710938 22.21875 -29.359375 C 22.988281 -25.492188 24.789062 -22.019531 27.625 -18.9375 C 30.582031 -16.101562 34.0625 -14.296875 38.0625 -13.515625 C 41.40625 -12.742188 44.75 -12.359375 48.09375 -12.359375 C 51.707031 -12.359375 55.125 -12.742188 58.34375 -13.515625 C 62.207031 -14.296875 65.679688 -16.101562 68.765625 -18.9375 C 71.597656 -21.894531 73.40625 -25.367188 74.1875 -29.359375 C 74.957031 -32.710938 75.34375 -36.125 75.34375 -39.59375 C 75.34375 -43.070312 74.957031 -46.421875 74.1875 -49.640625 C 73.40625 -53.640625 71.597656 -57.179688 68.765625 -60.265625 C 65.929688 -62.972656 62.457031 -64.710938 58.34375 -65.484375 C 56.664062 -65.867188 55.019531 -66.191406 53.40625 -66.453125 C 51.800781 -66.710938 50.097656 -66.84375 48.296875 -66.84375 C 46.617188 -66.84375 44.910156 -66.710938 43.171875 -66.453125 C 41.429688 -66.191406 39.726562 -65.867188 38.0625 -65.484375 C 34.0625 -64.710938 30.582031 -62.972656 27.625 -60.265625 C 24.789062 -57.304688 22.988281 -53.832031 22.21875 -49.84375 Z M 22.21875 -49.84375 "/></g></g></g><g clip-path="url(#fd34a3e274)"><path fill="#00eaab" d="M 96.371094 85.523438 C 61.90625 85.523438 33.859375 113.566406 33.859375 148.035156 L 33.859375 206.640625 C 33.859375 208.21875 34.8125 209.648438 36.273438 210.25 C 36.757812 210.453125 37.265625 210.546875 37.765625 210.546875 C 38.78125 210.546875 39.785156 210.148438 40.535156 209.40625 L 55.042969 194.894531 C 66.476562 205.015625 81.011719 210.546875 96.371094 210.546875 C 130.839844 210.546875 158.886719 182.503906 158.886719 148.035156 C 158.886719 113.566406 130.839844 85.523438 96.371094 85.523438 Z M 96.371094 85.523438 " fill-opacity="1" fill-rule="nonzero"/></g><g clip-path="url(#ff2db30124)"><g clip-path="url(#da47c62e16)"><g clip-path="url(#a1ed8012e0)"><g clip-path="url(#ea718d5c30)"><path fill="#000000" d="M 63.390625 160.210938 C 73.574219 142.21875 78.660156 133.222656 78.660156 133.222656 C 81.253906 129.332031 83.949219 128.550781 86.742188 130.878906 C 88.105469 132.933594 87.824219 135.648438 85.894531 139.011719 C 80.984375 149.296875 78.527344 154.441406 78.527344 154.441406 C 77.960938 156.9375 79.597656 157.898438 83.441406 157.328125 C 110.214844 148.625 123.601562 144.273438 123.601562 144.273438 C 128.855469 144.097656 130.003906 147.855469 126.828125 150.660156 C 109.417969 157.546875 100.714844 160.992188 100.714844 160.992188 C 99.429688 162.417969 99.953125 163.308594 102.273438 163.660156 C 121.621094 159.652344 131.292969 157.652344 131.292969 157.652344 C 136.195312 158.125 136.710938 162.179688 132.21875 164.414062 C 114.273438 169.21875 105.300781 171.617188 105.300781 171.617188 C 103.453125 173.0625 103.683594 174.347656 105.992188 175.476562 C 122.089844 173.921875 130.144531 173.140625 130.144531 173.140625 C 131.785156 173.847656 132.679688 174.722656 132.828125 175.753906 C 133.0625 177.613281 132.40625 178.824219 130.863281 179.394531 C 114.429688 181.882812 106.210938 183.128906 106.210938 183.128906 C 104.121094 184.347656 104.105469 185.539062 106.160156 186.714844 C 117.761719 187.027344 123.5625 187.183594 123.5625 187.183594 C 125.394531 187.671875 126.183594 188.550781 125.9375 189.816406 C 125.542969 191.226562 124.355469 192.035156 122.371094 192.25 C 96.898438 194.746094 81.496094 195.394531 76.160156 194.195312 C 66.355469 190.660156 60.707031 184.117188 59.210938 174.574219 C 59.628906 169.914062 61.023438 165.128906 63.390625 160.210938 Z M 63.390625 160.210938 " fill-opacity="1" fill-rule="evenodd"/></g></g></g></g><g clip-path="url(#cf3954f7e8)"><g clip-path="url(#4d50a46dc2)"><g clip-path="url(#57f25f0e9a)"><g clip-path="url(#1206af257a)"><path fill="#000000" d="M 58.660156 124.839844 C 61.140625 133.734375 63.671875 141.574219 66.25 148.359375 C 66.25 148.359375 68.785156 143.890625 73.859375 134.953125 C 67.828125 125.058594 64.816406 120.113281 64.816406 120.113281 C 61.199219 117.804688 59.148438 119.378906 58.660156 124.839844 Z M 58.660156 124.839844 " fill-opacity="1" fill-rule="evenodd"/></g></g></g></g><g clip-path="url(#c54cb61a05)"><g clip-path="url(#b4552b3fd1)"><g clip-path="url(#5aa94a02c0)"><g clip-path="url(#0969a547a9)"><path fill="#000000" d="M 87.878906 127.609375 C 84.160156 125.300781 82.460938 126.316406 82.460938 126.316406 C 82.460938 126.316406 87.433594 117.570312 96.863281 101.066406 C 100.914062 97.203125 105.652344 101.386719 103.894531 105.648438 C 97.039062 121.570312 93.613281 129.527344 93.613281 129.527344 C 94.734375 131.589844 95.941406 131.972656 97.234375 130.683594 C 107.34375 112.394531 112.402344 103.25 112.402344 103.25 C 116.386719 99.53125 121.140625 103.761719 119.644531 108.847656 C 109.257812 127.378906 104.0625 136.648438 104.0625 136.648438 C 104.796875 137.703125 105.886719 138.058594 107.332031 137.707031 C 117.523438 124.414062 122.621094 117.765625 122.621094 117.765625 C 126.882812 115.144531 128.96875 119.023438 128.019531 122.417969 C 118.351562 136.535156 113.515625 143.597656 113.515625 143.597656 C 96.734375 148.796875 88.347656 151.394531 88.347656 151.394531 C 85.644531 152.386719 85.085938 150.394531 85.394531 149.425781 C 89.6875 140.703125 91.488281 135.5 91.488281 135.5 C 92.128906 132.257812 90.875 129.070312 87.878906 127.609375 Z M 87.878906 127.609375 " fill-opacity="1" fill-rule="evenodd"/></g></g></g></g></svg>